<svg width="1200" height="520" viewBox="0 0 1200 520" fill="none" xmlns="http://www.w3.org/2000/svg">
  <defs>
    <linearGradient id="bg" x1="0" y1="0" x2="1200" y2="520" gradientUnits="userSpaceOnUse">
      <stop stop-color="#DDF8EF"/>
      <stop offset="1" stop-color="#B9ECDC"/>
    </linearGradient>
    <linearGradient id="card" x1="200" y1="80" x2="970" y2="460" gradientUnits="userSpaceOnUse">
      <stop stop-color="#FFFFFF"/>
      <stop offset="1" stop-color="#ECFBF5"/>
    </linearGradient>
  </defs>
  <rect width="1200" height="520" rx="36" fill="url(#bg)"/>
  <circle cx="1050" cy="96" r="62" fill="#9ADFC8" opacity="0.55"/>
  <circle cx="114" cy="430" r="76" fill="#8DDAC0" opacity="0.42"/>
  <rect x="170" y="74" width="860" height="372" rx="28" fill="url(#card)"/>
  <rect x="240" y="144" width="236" height="236" rx="22" fill="#D8F5EB"/>
  <circle cx="358" cy="244" r="66" fill="#7ACCB1"/>
  <rect x="306" y="304" width="104" height="56" rx="28" fill="#5BB99D"/>
  <rect x="526" y="152" width="432" height="38" rx="19" fill="#CCEFE3"/>
  <rect x="526" y="214" width="324" height="28" rx="14" fill="#DAF4EB"/>
  <rect x="526" y="260" width="390" height="28" rx="14" fill="#DAF4EB"/>
  <rect x="526" y="306" width="280" height="28" rx="14" fill="#DAF4EB"/>
  <rect x="526" y="352" width="190" height="52" rx="26" fill="#66C8AA"/>
</svg>
